<?xml version="1.0" standalone="no"?>
        <!DOCTYPE svg PUBLIC "-//W3C//DTD SVG 1.1//EN" 
        "http://www.w3.org/Graphics/SVG/1.1/DTD/svg11.dtd"> <svg role="img" viewBox="0 0 24 24" xmlns="http://www.w3.org/2000/svg" id="IconChangeColor" height="200" width="200"><title>RabbitMQ</title><path d="M23.035 9.601h-7.677a.956.956 0 01-.962-.962V.962a.956.956 0 00-.962-.956H10.56a.956.956 0 00-.962.956V8.64a.956.956 0 01-.962.962H5.762a.956.956 0 01-.961-.962V.962A.956.956 0 003.839 0H.959a.956.956 0 00-.956.962v22.076A.956.956 0 00.965 24h22.07a.956.956 0 00.962-.962V10.58a.956.956 0 00-.962-.98zm-3.86 8.152a1.437 1.437 0 01-1.437 1.443h-1.924a1.437 1.437 0 01-1.436-1.443v-1.917a1.437 1.437 0 011.436-1.443h1.924a1.437 1.437 0 011.437 1.443z" id="mainIconPathAttribute" filter="url(#shadow)" stroke-width="0.6" stroke="#fafafa" fill="transparent"></path><filter id="shadow"><feDropShadow id="shadowValue" stdDeviation="0.3" dx="-0.4" dy="0.4" flood-color="black"></feDropShadow></filter></svg> 